<svg xmlns="http://www.w3.org/2000/svg" version="1.1" xmlns:xlink="http://www.w3.org/1999/xlink" width="68" height="50"><svg width="68" height="50" viewBox="0 0 68 50" fill="none" xmlns="http://www.w3.org/2000/svg">
<path d="M66.9306 4.34103C66.2141 3.99074 65.9057 4.65827 65.4869 4.99713C65.3434 5.10645 65.222 5.24846 65.1011 5.37957C64.0539 6.49529 62.8303 7.2282 61.2319 7.14067C58.8953 7.00956 56.8997 7.74229 55.1362 9.525C54.7614 7.32662 53.516 6.01352 51.6201 5.17183C50.628 4.73436 49.625 4.29655 48.9304 3.34499C48.4455 2.6671 48.3132 1.91221 48.0707 1.16841C47.9165 0.720227 47.7618 0.260616 47.2437 0.183806C46.6816 0.0962779 46.4608 0.566428 46.2407 0.960661C45.3588 2.56867 45.0171 4.34049 45.0504 6.1341C45.1278 10.1706 46.8362 13.3859 50.2314 15.6723C50.6171 15.9349 50.7161 16.1973 50.5953 16.5801C50.3637 17.3679 50.0881 18.1333 49.8457 18.921C49.6913 19.4242 49.4594 19.5336 48.9195 19.3149C47.0568 18.5386 45.4471 17.3897 44.025 16.0008C41.611 13.6708 39.4286 11.1003 36.7058 9.08754C36.0756 8.6227 35.4285 8.18124 34.7657 7.76408C31.9879 5.0734 35.1296 2.86359 35.857 2.60136C36.6175 2.3277 36.1216 1.38723 33.6631 1.39812C31.205 1.40902 28.9562 2.22928 26.0904 3.3232C25.6714 3.48754 25.2307 3.60776 24.7786 3.70582C22.1771 3.21352 19.4765 3.1042 16.6545 3.42127C11.3412 4.01164 7.0977 6.51672 3.97824 10.7936C0.230579 15.9354 -0.651538 21.7761 0.428814 27.8687C1.56414 34.2892 4.84889 39.6053 9.89752 43.762C15.1335 48.0711 21.1632 50.1824 28.0413 49.7777C32.2189 49.5372 36.8709 48.9796 42.1177 44.5492C43.4406 45.2053 44.8293 45.4681 47.1332 45.6649C48.908 45.8293 50.6166 45.5774 51.9394 45.3043C54.0118 44.8668 53.8686 42.9525 53.1188 42.6027C47.0455 39.7809 48.3787 40.9293 47.1664 39.9996C49.8522 36.83 53.7236 33.5526 55.8818 24.6745C56.3993 22.5456 56.7234 20.1671 56.7234 17.9373C56.7234 17.4907 56.8224 17.2703 57.3737 17.2155C58.8948 17.0403 60.3718 16.6251 61.7277 15.881C65.6629 13.7371 67.2504 10.215 67.6252 5.99298C67.6802 5.34778 67.6143 4.67989 66.9306 4.34103ZM32.6383 42.3394C26.7518 37.724 23.897 36.2032 22.7176 36.2689C21.6154 36.3346 21.8136 37.5925 22.0561 38.4128C22.3095 39.2223 22.6406 39.78 23.1033 40.491C23.423 40.9615 23.6436 41.6612 22.7838 42.1867C20.888 43.3567 17.592 41.7928 17.4374 41.716C13.6015 39.4628 10.3937 36.4877 8.13382 32.4189C5.95145 28.5027 4.68361 24.3029 4.47445 19.8181C4.41929 18.7354 4.73912 18.3521 5.81912 18.1556C7.24096 17.8929 8.70704 17.838 10.1291 18.0458C16.1365 18.921 21.251 21.6008 25.5391 25.8447C27.9863 28.2617 29.8381 31.1498 31.7454 33.9716C33.7736 36.9686 35.9562 39.8236 38.734 42.1644C39.7151 42.9846 40.4975 43.6082 41.2473 44.0678C38.9873 44.3192 35.2173 44.374 32.6383 42.3394ZM35.4854 24.0266C35.5787 23.6495 35.9189 23.3732 36.331 23.3732C36.4326 23.3734 36.5333 23.3919 36.6284 23.4277C36.7498 23.4716 36.8599 23.5373 36.9482 23.6354C37.1024 23.7888 37.1907 24.0075 37.1907 24.237C37.1907 24.7184 36.805 25.101 36.32 25.101C36.1153 25.1029 35.9168 25.0311 35.761 24.8987C35.6051 24.7664 35.5024 24.5823 35.4716 24.3805C35.4525 24.2628 35.4572 24.1425 35.4854 24.0266ZM43.9391 28.8344C43.4724 29.0123 43.0079 29.152 42.559 29.1702C41.7211 29.2138 40.8064 28.8748 40.3105 28.4591C39.5391 27.8139 38.9879 27.4532 38.7563 26.3261C38.6571 25.8447 38.7121 25.101 38.8004 24.6745C38.9988 23.7556 38.7782 23.1649 38.1281 22.629C37.5992 22.1915 36.9264 22.0713 36.1881 22.0713C35.9125 22.0713 35.6591 21.9511 35.4716 21.8527C35.1629 21.6998 34.9095 21.3168 35.1519 20.8463C35.2293 20.6934 35.6041 20.3213 35.6924 20.2559C36.6952 19.687 37.8529 19.8729 38.9218 20.2995C39.9139 20.7043 40.6637 21.4479 41.7438 22.4979C42.846 23.7665 43.0444 24.1168 43.673 25.0684C44.1692 25.812 44.621 26.5779 44.9297 27.4527C45.0868 27.9102 44.9424 28.2994 44.5105 28.5739C44.3348 28.6856 44.1328 28.7604 43.9391 28.8344Z" fill="#4D6BFE"></path>
</svg><style>@media (prefers-color-scheme: light) { :root { filter: none; } }
@media (prefers-color-scheme: dark) { :root { filter: none; } }
</style></svg>