<svg width="74" height="56" viewBox="0 0 74 56" fill="none" xmlns="http://www.w3.org/2000/svg">
<path d="M33.4645 54.0355C35.4171 55.9882 38.5829 55.9882 40.5355 54.0355L72.3553 22.2157C74.308 20.2631 74.308 17.0973 72.3553 15.1447C70.4027 13.192 67.2369 13.192 65.2843 15.1447L37 43.4289L8.71573 15.1447C6.76311 13.192 3.59728 13.192 1.64466 15.1447C-0.307958 17.0973 -0.307959 20.2631 1.64466 22.2157L33.4645 54.0355ZM32 49L32 50.5L42 50.5L42 49L32 49Z" fill="#EC8025"/>
<path d="M34.1716 32.3284C35.7337 33.8905 38.2663 33.8905 39.8284 32.3284L65.2843 6.87259C66.8464 5.31049 66.8464 2.77783 65.2843 1.21573C63.7222 -0.346367 61.1895 -0.346367 59.6274 1.21573L37 23.8431L14.3726 1.21573C12.8105 -0.34637 10.2778 -0.346371 8.71573 1.21573C7.15363 2.77782 7.15363 5.31048 8.71573 6.87258L34.1716 32.3284ZM33 28L33 29.5L41 29.5L41 28L33 28Z" fill="#439353"/>
</svg>
