<svg width="24" height="25" viewBox="0 0 24 25" fill="none" xmlns="http://www.w3.org/2000/svg">
<path d="M14.4301 19.0965C14.2401 19.0965 14.0501 19.0265 13.9001 18.8765C13.6101 18.5865 13.6101 18.1065 13.9001 17.8165L19.4401 12.2765L13.9001 6.73648C13.6101 6.44648 13.6101 5.96648 13.9001 5.67648C14.1901 5.38648 14.6701 5.38648 14.9601 5.67648L21.0301 11.7465C21.3201 12.0365 21.3201 12.5165 21.0301 12.8065L14.9601 18.8765C14.8101 19.0265 14.6201 19.0965 14.4301 19.0965Z" fill="#292D32"/>
<path d="M20.33 13.0264H3.5C3.09 13.0264 2.75 12.6864 2.75 12.2764C2.75 11.8664 3.09 11.5264 3.5 11.5264H20.33C20.74 11.5264 21.08 11.8664 21.08 12.2764C21.08 12.6864 20.74 13.0264 20.33 13.0264Z" fill="#292D32"/>
</svg>
