<svg width="81" height="80" viewBox="0 0 81 80" fill="none" xmlns="http://www.w3.org/2000/svg">
<g id="ic:round-published-with-changes">
<path id="Vector" d="M56.9994 34.1001L38.1327 52.9668C37.8243 53.2758 37.458 53.521 37.0548 53.6882C36.6515 53.8555 36.2192 53.9416 35.7827 53.9416C35.3461 53.9416 34.9138 53.8555 34.5106 53.6882C34.1074 53.521 33.7411 53.2758 33.4327 52.9668L23.9993 43.5335C23.6907 43.2248 23.4459 42.8585 23.2789 42.4553C23.1119 42.052 23.0259 41.6199 23.0259 41.1834C23.0259 40.747 23.1119 40.3149 23.2789 39.9116C23.4459 39.5084 23.6907 39.1421 23.9993 38.8334C24.308 38.5248 24.6743 38.28 25.0775 38.113C25.4808 37.946 25.9129 37.86 26.3493 37.86C26.7858 37.86 27.2179 37.946 27.6212 38.113C28.0244 38.28 28.3907 38.5248 28.6993 38.8334L35.766 45.9001L52.266 29.4001C52.5744 29.0911 52.9407 28.8459 53.3439 28.6787C53.7472 28.5114 54.1795 28.4253 54.616 28.4253C55.0526 28.4253 55.4849 28.5114 55.8881 28.6787C56.2913 28.8459 56.6576 29.0911 56.966 29.4001C58.2993 30.7001 58.2994 32.8001 56.9994 34.1001ZM13.8327 40.0001C13.8327 32.2334 17.2327 25.2668 22.566 20.4001L27.666 25.5001C27.901 25.7305 28.1989 25.8861 28.5222 25.9474C28.8455 26.0087 29.1797 25.9729 29.4827 25.8446C29.7857 25.7163 30.0439 25.5011 30.2248 25.2263C30.4058 24.9514 30.5013 24.6292 30.4993 24.3001V10.0001C30.4993 9.06678 29.766 8.33345 28.8327 8.33345H14.5327C13.0327 8.33345 12.2993 10.1335 13.366 11.1668L17.8327 15.6668C11.2993 21.7334 7.16602 30.3668 7.16602 40.0001C7.16602 55.8334 18.2327 69.1001 33.0327 72.5001C35.1327 72.9668 37.166 71.4001 37.166 69.2335C37.166 67.6668 36.066 66.3335 34.5327 65.9668C22.6993 63.2668 13.8327 52.6668 13.8327 40.0001ZM73.8327 40.0001C73.8327 24.1668 62.766 10.9001 47.966 7.50012C45.866 7.03345 43.8327 8.60012 43.8327 10.7668C43.8327 12.3335 44.9327 13.6668 46.466 14.0335C58.2993 16.7335 67.166 27.3334 67.166 40.0001C67.166 47.7668 63.766 54.7334 58.4327 59.6001L53.3327 54.5001C53.0977 54.2698 52.7998 54.1141 52.4765 54.0528C52.1532 53.9915 51.819 54.0273 51.516 54.1556C51.213 54.284 50.9548 54.4991 50.7738 54.774C50.5929 55.0488 50.4974 55.3711 50.4993 55.7001V70.0001C50.4993 70.9335 51.2327 71.6668 52.166 71.6668H66.466C67.966 71.6668 68.6993 69.8668 67.6327 68.8335L63.166 64.3334C69.6993 58.2668 73.8327 49.6334 73.8327 40.0001Z" fill="#EC8025"/>
</g>
</svg>
