<svg width="35" height="60" viewBox="0 0 35 60" fill="none" xmlns="http://www.w3.org/2000/svg">
<path id="Vector" d="M0.833328 40H7.49999C7.49999 43.6 12.0667 46.6667 17.5 46.6667C22.9333 46.6667 27.5 43.6 27.5 40C27.5 36.3333 24.0333 35 16.7 33.2333C9.63333 31.4667 0.833328 29.2667 0.833328 20C0.833328 14.0333 5.73333 8.96667 12.5 7.26667V0H22.5V7.26667C29.2667 8.96667 34.1667 14.0333 34.1667 20H27.5C27.5 16.4 22.9333 13.3333 17.5 13.3333C12.0667 13.3333 7.49999 16.4 7.49999 20C7.49999 23.6667 10.9667 25 18.3 26.7667C25.3667 28.5333 34.1667 30.7333 34.1667 40C34.1667 45.9667 29.2667 51.0333 22.5 52.7333V60H12.5V52.7333C5.73333 51.0333 0.833328 45.9667 0.833328 40Z" fill="#EC8025"/>
</svg>
