<svg width="75" height="60" viewBox="0 0 75 60" fill="none" xmlns="http://www.w3.org/2000/svg">
<path id="Vector" d="M4.16666 60C3.22221 60 2.42999 59.68 1.78999 59.04C1.14999 58.4 0.831102 57.6089 0.833325 56.6667C0.833325 55.7222 1.15332 54.93 1.79332 54.29C2.43332 53.65 3.22444 53.3311 4.16666 53.3333H70.8333C71.7778 53.3333 72.57 53.6533 73.21 54.2933C73.85 54.9333 74.1689 55.7244 74.1667 56.6667C74.1667 57.6111 73.8467 58.4033 73.2067 59.0433C72.5667 59.6833 71.7755 60.0022 70.8333 60H4.16666ZM10.8333 50C8.99999 50 7.42999 49.3467 6.12332 48.04C4.81666 46.7333 4.16444 45.1644 4.16666 43.3333V6.66667C4.16666 4.83334 4.81999 3.26334 6.12666 1.95667C7.43332 0.650005 9.00221 -0.00221656 10.8333 5.65931e-06H64.1667C66 5.65931e-06 67.57 0.653339 68.8767 1.96001C70.1833 3.26667 70.8355 4.83556 70.8333 6.66667V43.3333C70.8333 45.1667 70.18 46.7367 68.8733 48.0433C67.5667 49.35 65.9978 50.0022 64.1667 50H10.8333ZM10.8333 43.3333H64.1667V6.66667H10.8333V43.3333Z" fill="#EC8025"/>
</svg>
