<svg width="81" height="80" viewBox="0 0 81 80" fill="none" xmlns="http://www.w3.org/2000/svg">
<g id="material-symbols:person-celebrate-rounded">
<path id="Vector" d="M30.5 66.6667V53.3334C27.6667 53.1111 24.8889 52.8056 22.1667 52.4167C19.4444 52.0278 16.7222 51.5278 14 50.9167C13.0556 50.6945 12.3056 50.1667 11.75 49.3334C11.1944 48.5 11.0556 47.6111 11.3333 46.6667C11.6111 45.7222 12.1811 45.0278 13.0433 44.5834C13.9056 44.1389 14.8078 44.0278 15.75 44.25C19.8056 45.1945 23.9033 45.8334 28.0433 46.1667C32.1833 46.5 36.3356 46.6667 40.5 46.6667C44.6667 46.6667 48.82 46.5 52.96 46.1667C57.1 45.8334 61.1967 45.1945 65.25 44.25C66.25 44.0278 67.1667 44.1389 68 44.5834C68.8333 45.0278 69.3889 45.7222 69.6667 46.6667C69.9444 47.6111 69.7911 48.5 69.2067 49.3334C68.6222 50.1667 67.8589 50.6945 66.9167 50.9167C64.1944 51.5278 61.4722 52.0278 58.75 52.4167C56.0278 52.8056 53.2778 53.1111 50.5 53.3334V66.6667C50.5 67.6111 50.1811 68.4034 49.5433 69.0434C48.9056 69.6834 48.1133 70.0022 47.1667 70H33.8333C32.8889 70 32.0967 69.68 31.4567 69.04C30.8167 68.4 30.4978 67.6089 30.5 66.6667ZM40.5 43.3334C38.6111 43.3334 37.0278 42.6945 35.75 41.4167C34.4722 40.1389 33.8333 38.5556 33.8333 36.6667C33.8333 34.8334 34.4722 33.2634 35.75 31.9567C37.0278 30.65 38.6111 29.9978 40.5 30C42.3333 30 43.9033 30.6534 45.21 31.96C46.5167 33.2667 47.1689 34.8356 47.1667 36.6667C47.1667 38.5556 46.5133 40.1389 45.2067 41.4167C43.9 42.6945 42.3311 43.3334 40.5 43.3334ZM15.5 33.3334C14.0556 33.3334 12.8611 32.8611 11.9167 31.9167C10.9722 30.9722 10.5 29.7778 10.5 28.3334C10.5 26.9445 10.9722 25.7634 11.9167 24.79C12.8611 23.8167 14.0556 23.3311 15.5 23.3334C16.8889 23.3334 18.07 23.82 19.0433 24.7934C20.0167 25.7667 20.5022 26.9467 20.5 28.3334C20.5 29.7778 20.0133 30.9722 19.04 31.9167C18.0667 32.8611 16.8867 33.3334 15.5 33.3334ZM65.5 33.3334C64.0556 33.3334 62.8611 32.8611 61.9167 31.9167C60.9722 30.9722 60.5 29.7778 60.5 28.3334C60.5 26.9445 60.9722 25.7634 61.9167 24.79C62.8611 23.8167 64.0556 23.3311 65.5 23.3334C66.8889 23.3334 68.07 23.82 69.0433 24.7934C70.0167 25.7667 70.5022 26.9467 70.5 28.3334C70.5 29.7778 70.0133 30.9722 69.04 31.9167C68.0667 32.8611 66.8867 33.3334 65.5 33.3334ZM24.6667 20.8334C23.2222 20.8334 22.0278 20.3611 21.0833 19.4167C20.1389 18.4722 19.6667 17.2778 19.6667 15.8334C19.6667 14.4445 20.1389 13.2634 21.0833 12.29C22.0278 11.3167 23.2222 10.8311 24.6667 10.8334C26.0556 10.8334 27.2367 11.32 28.21 12.2934C29.1833 13.2667 29.6689 14.4467 29.6667 15.8334C29.6667 17.2778 29.18 18.4722 28.2067 19.4167C27.2333 20.3611 26.0533 20.8334 24.6667 20.8334ZM56.3333 20.8334C54.8889 20.8334 53.6944 20.3611 52.75 19.4167C51.8056 18.4722 51.3333 17.2778 51.3333 15.8334C51.3333 14.4445 51.8056 13.2634 52.75 12.29C53.6944 11.3167 54.8889 10.8311 56.3333 10.8334C57.7222 10.8334 58.9033 11.32 59.8767 12.2934C60.85 13.2667 61.3356 14.4467 61.3333 15.8334C61.3333 17.2778 60.8467 18.4722 59.8733 19.4167C58.9 20.3611 57.72 20.8334 56.3333 20.8334ZM40.5 16.6667C39.0556 16.6667 37.8611 16.1945 36.9167 15.25C35.9722 14.3056 35.5 13.1111 35.5 11.6667C35.5 10.2778 35.9722 9.09669 36.9167 8.12336C37.8611 7.15003 39.0556 6.66447 40.5 6.66669C41.8889 6.66669 43.07 7.15336 44.0433 8.12669C45.0167 9.10003 45.5022 10.28 45.5 11.6667C45.5 13.1111 45.0133 14.3056 44.04 15.25C43.0667 16.1945 41.8867 16.6667 40.5 16.6667Z" fill="#EC8025"/>
</g>
</svg>
