<svg width="40" height="40" viewBox="0 0 40 40" fill="none" xmlns="http://www.w3.org/2000/svg">
<path d="M11.0472 33.6521L11.6519 34.009C14.193 35.5101 17.1062 36.304 20.0771 36.3056H20.0836C29.2074 36.3056 36.6331 28.9153 36.6366 19.8324C36.638 15.4304 34.918 11.2918 31.7927 8.17785C28.6672 5.06449 24.5116 3.34871 20.0895 3.34688C10.9588 3.34688 3.53306 10.736 3.52962 19.8189C3.52841 22.9314 4.40308 25.9628 6.06033 28.5853L6.45423 29.2086L4.7816 35.2873L11.0472 33.6521ZM0.000183105 39.996L2.82557 29.7261C1.08284 26.7204 0.166035 23.3108 0.16747 19.818C0.171718 8.89035 9.10531 0 20.084 0C25.4113 0.00228588 30.4117 2.0662 34.1719 5.81241C37.9317 9.55857 40.0017 14.5382 39.9999 19.834C39.9953 30.7611 31.0598 39.6531 20.084 39.6531C20.0844 39.6531 20.0832 39.6531 20.084 39.6531H20.0755C16.7424 39.652 13.4673 38.8197 10.5584 37.2404L0.000183105 39.996Z" fill="white"/>
<path d="M0.853828 19.8282C0.852623 23.1999 1.73762 26.4916 3.42042 29.3935L0.692627 39.3079L10.8848 36.6476C13.693 38.1709 16.8547 38.975 20.0724 38.9761H20.0807C30.6771 38.9761 39.302 30.3926 39.3066 19.8433C39.3086 14.7309 37.3105 9.92428 33.6803 6.30745C30.0507 2.69113 25.2236 0.698476 20.0798 0.696075C9.48291 0.696075 0.858421 9.27835 0.853828 19.8282ZM20.0807 38.9761C20.0805 38.9761 20.0803 38.9761 20.0807 38.9761Z" fill="url(#paint0_linear_11_150)"/>
<path d="M0.167287 19.8225C0.166082 23.3152 1.08289 26.7252 2.82562 29.7306L0 39.9999L10.5579 37.2442C13.4669 38.8234 16.7419 39.6556 20.075 39.657H20.0835C31.0593 39.657 39.9948 30.7649 39.9994 19.8378C40.0013 14.5417 37.9313 9.56224 34.1714 5.81626C30.4109 2.07028 25.4109 0.00613109 20.0835 0.00384521C9.10537 0.00384521 0.171545 8.89419 0.166952 19.8218M6.45427 29.2128L6.06016 28.5897C4.40291 25.9668 3.52824 22.9355 3.52944 19.8233C3.53306 10.741 10.9586 3.35129 20.0893 3.35129C24.511 3.353 28.6666 5.06895 31.7925 8.18226C34.918 11.2958 36.6379 15.4348 36.6366 19.8362C36.6326 28.9192 29.2069 36.3094 20.0831 36.3094H20.0766C17.1058 36.3077 14.1923 35.5139 11.6514 34.013L11.0467 33.6561L4.78117 35.2913L6.45427 29.2128ZM20.0835 39.657C20.0833 39.657 20.0831 39.657 20.0835 39.657Z" fill="url(#paint1_linear_11_150)"/>
<path fill-rule="evenodd" clip-rule="evenodd" d="M15.106 11.5363C14.7331 10.7113 14.3408 10.6948 13.9862 10.6803C13.696 10.668 13.3641 10.6688 13.0326 10.6688C12.7006 10.6688 12.1615 10.7928 11.7056 11.2885C11.2494 11.7842 9.96378 12.9825 9.96378 15.4197C9.96378 17.8571 11.7472 20.2121 11.9957 20.543C12.2446 20.8732 15.4384 26.0346 20.4961 28.0201C24.6998 29.6702 25.5553 29.342 26.4676 29.2593C27.38 29.1768 29.4119 28.0614 29.8265 26.9046C30.2412 25.748 30.2412 24.7566 30.1169 24.5495C29.9925 24.3431 29.6606 24.2191 29.163 23.9716C28.6652 23.7238 26.2187 22.5253 25.7627 22.36C25.3064 22.1948 24.9746 22.1124 24.6427 22.6083C24.311 23.1037 23.3579 24.2191 23.0675 24.5495C22.7773 24.8806 22.4868 24.9219 21.9892 24.6741C21.4914 24.4256 19.8887 23.903 17.9874 22.2156C16.508 20.9026 15.5093 19.2811 15.2189 18.7851C14.9287 18.2898 15.1879 18.0215 15.4374 17.7745C15.661 17.5525 15.9352 17.1961 16.1841 16.907C16.4324 16.6177 16.5152 16.4113 16.6811 16.0808C16.8472 15.7502 16.7641 15.4609 16.6398 15.2131C16.5152 14.9653 15.5485 12.5158 15.106 11.5363Z" fill="white"/>
<defs>
<linearGradient id="paint0_linear_11_150" x1="19.9998" y1="39.3039" x2="19.9998" y2="0.692018" gradientUnits="userSpaceOnUse">
<stop stop-color="#20B038"/>
<stop offset="1" stop-color="#60D66A"/>
</linearGradient>
<linearGradient id="paint1_linear_11_150" x1="20" y1="40.001" x2="20" y2="0.00504672" gradientUnits="userSpaceOnUse">
<stop stop-color="#F9F9F9"/>
<stop offset="1" stop-color="white"/>
</linearGradient>
</defs>
</svg>
